<svg width="1409" height="593" viewBox="0 0 1409 593" fill="none" xmlns="http://www.w3.org/2000/svg">
<g clip-path="url(#clip0)">
<g filter="url(#filter0_d)">
<path d="M1005.52 121.723C1005.52 123.924 1007.73 159.465 1010.44 200.93L1015.35 276.244L1040.07 299.938L1064.79 323.632L1073.94 355.789C1112.21 490.169 1124.4 532.311 1125.75 535.696L1127.45 539.419H1174.18C1199.75 539.419 1220.58 539.927 1220.24 540.604C1220.07 541.45 1213.81 553.297 1206.36 567.006C1199.08 580.884 1193.49 592.393 1193.83 592.731C1194.17 593.07 1215.67 580.884 1241.75 565.652L1289.16 537.727L1290.18 527.234C1290.86 521.31 1291.87 494.4 1292.55 467.49L1293.74 418.409L1245.14 367.974L1196.54 317.709L1216.18 296.722L1235.82 275.905V243.918C1235.82 195.176 1233.79 118 1232.44 118C1231.76 118 1214.66 136.278 1194.34 158.619L1157.42 199.237H1124.23H1091.04L1049.21 158.619C1026.18 136.278 1006.88 118 1006.37 118C1005.86 118 1005.52 119.692 1005.52 121.723ZM1083.08 202.453C1083.25 202.961 1069.7 217.177 1053.11 233.763L1022.8 264.058L1021.78 258.304C1021.27 255.088 1019.75 231.902 1018.22 206.853C1016.7 181.636 1015.18 155.065 1014.5 147.618L1013.48 134.078L1048.03 167.589C1066.99 186.206 1082.74 201.776 1083.08 202.453ZM1228.03 200.761L1229.05 265.581L1196.88 234.61C1179.1 217.685 1164.87 203.13 1165.04 202.453C1165.72 200.422 1226 134.586 1226.51 135.263C1226.68 135.601 1227.36 165.05 1228.03 200.761ZM1120.67 212.269C1120.67 215.823 1121.86 253.227 1123.21 295.538C1124.74 337.849 1125.42 372.713 1125.08 373.221C1124.57 373.56 1101.71 351.219 1074.28 323.463L1024.32 272.859L1057.68 239.348L1091.04 206.007H1105.77H1120.67V212.269ZM1191.8 239.518C1210.93 257.796 1226.51 273.197 1226.51 273.874C1226.51 274.89 1181.64 323.125 1147.43 359.004L1132.7 374.406L1132.53 367.636C1132.53 363.913 1131.34 328.54 1129.99 288.937C1128.63 249.334 1127.45 214.469 1127.45 211.423V206.007H1142.35L1157.08 206.177L1191.8 239.518ZM1239.38 372.713C1263.93 398.438 1283.92 420.44 1283.92 421.794C1283.75 423.148 1270.71 448.366 1255.13 477.645L1226.51 530.957H1180.11C1143.87 530.957 1134.05 530.449 1134.73 528.757C1135.07 527.741 1148.28 481.538 1164.02 426.533C1179.77 371.359 1193.15 326.171 1193.66 326.171C1194.34 326.171 1214.83 347.157 1239.38 372.713ZM1180.96 343.265C1179.43 349.188 1176.89 358.666 1175.03 364.251C1170.29 379.145 1166.56 392.176 1149.46 452.258C1140.82 482.045 1133.54 506.755 1133.2 507.094C1132.87 507.432 1132.53 480.014 1132.53 446.165V384.56L1157.08 359.174C1170.46 345.126 1181.47 333.11 1181.64 332.264C1181.64 331.418 1181.97 331.079 1182.48 331.587C1182.99 332.095 1182.31 337.341 1180.96 343.265ZM1125.42 445.319L1124.91 506.078L1108.14 447.858C1082.06 356.974 1076.82 338.357 1076.65 336.326C1076.65 335.818 1087.65 346.48 1101.2 360.02L1125.75 384.56L1125.42 445.319ZM1284.42 484.415C1283.75 510.478 1282.56 532.311 1281.88 532.988C1280.87 534.003 1220.92 569.376 1213.3 573.607C1210.59 574.961 1210.76 574.114 1214.32 567.852C1216.52 563.96 1233.45 532.48 1251.91 498.293C1270.37 464.105 1285.44 436.18 1285.61 436.519C1285.78 436.857 1285.27 458.351 1284.42 484.415Z" fill="#2F2F2F"/>
<path d="M1024.15 163.865C1024.15 167.927 1025.34 187.221 1026.69 206.854C1028.05 226.317 1029.23 243.241 1029.23 244.426C1029.23 245.441 1038.55 236.81 1050.06 225.132C1061.41 213.623 1071.06 203.638 1071.4 203.299C1072.41 202.284 1066.66 196.36 1044.13 175.205L1024.15 156.588V163.865Z" fill="#2F2F2F"/>
<path d="M1197.38 178.42C1185.87 190.945 1176.56 201.945 1176.56 202.622C1176.56 203.469 1186.21 213.285 1198.23 224.624L1219.74 245.103L1220.24 233.594C1220.41 227.332 1220.07 207.192 1219.4 188.744L1218.04 155.572L1197.38 178.42Z" fill="#2F2F2F"/>
<path d="M1063.95 244.426L1035.33 273.875L1075.46 313.816C1097.64 335.818 1115.93 353.42 1116.27 353.081C1116.61 352.573 1113.56 246.118 1112.38 216.501C1112.21 215.147 1109.16 214.47 1102.55 214.639L1092.73 214.808L1063.95 244.426Z" fill="#2F2F2F"/>
<path d="M1136.42 237.656C1137.1 250.519 1138.12 279.967 1138.62 303.323C1139.3 326.509 1140.32 347.327 1140.82 349.527C1141.84 352.912 1146.24 348.85 1178.25 314.493C1198.23 292.999 1214.66 274.89 1214.66 274.044C1214.66 273.197 1200.94 259.489 1184.18 243.58L1153.69 214.47H1144.55H1135.41L1136.42 237.656Z" fill="#2F2F2F"/>
<path d="M1196.88 341.741C1196.88 342.418 1185.53 383.037 1171.47 431.949C1157.59 480.861 1146.07 521.141 1146.07 521.649C1146.07 522.156 1163.01 522.326 1183.67 522.156L1221.43 521.649L1248.18 472.06C1274.77 422.64 1274.77 422.471 1271.72 418.409C1266.47 411.809 1196.88 340.557 1196.88 341.741Z" fill="#2F2F2F"/>
<path d="M1152.34 376.098L1140.99 388.453L1141.33 417.563L1141.84 446.843L1153.86 405.039C1160.3 382.191 1165.38 363.405 1164.87 363.574C1164.36 363.574 1158.77 369.329 1152.34 376.098Z" fill="#2F2F2F"/>
<path d="M1093.92 366.79C1094.43 368.144 1099.68 386.422 1105.6 407.239L1116.44 445.15L1116.95 416.548L1117.46 388.115L1105.26 376.098C1098.66 369.667 1093.58 365.436 1093.92 366.79Z" fill="#2F2F2F"/>
</g>
<g filter="url(#filter1_d)">
<path d="M183.609 479.455C155.11 479.206 132.46 469.539 115.657 450.454C98.9489 431.369 90.7271 406.687 90.9922 376.407C91.2736 344.252 100.17 318.595 117.683 299.434C135.289 280.181 159.139 270.686 189.231 270.95C216.418 271.187 238.32 280.707 254.937 299.51C271.649 318.219 279.873 342.667 279.609 372.853C279.316 406.227 270.462 432.4 253.045 451.374C247.649 457.327 241.652 462.29 235.055 466.264L283.664 503.956L260.181 503.751L222.341 472.762C210.863 477.35 197.953 479.581 183.609 479.455ZM186.73 283.584C163.294 283.38 143.908 291.695 128.572 308.53C113.33 325.366 105.589 347.518 105.349 374.986C105.106 402.735 112.084 424.922 126.283 441.546C140.482 458.077 159.535 466.447 183.44 466.656C208.377 466.874 228.181 458.938 242.854 442.847C257.527 426.662 264.991 404.039 265.246 374.978C265.495 346.479 258.565 324.198 244.455 308.137C230.44 291.983 211.198 283.798 186.73 283.584ZM410.038 477.919L410.267 451.764L409.704 451.759C399.5 471.452 383.945 481.207 363.04 481.024C329.01 480.727 312.183 459.157 312.558 416.315L313.286 333.068L326.364 333.182L325.664 413.195C325.493 432.694 328.556 446.878 334.854 455.746C341.245 464.614 351.331 469.109 365.112 469.229C378.518 469.347 389.389 464.52 397.724 454.748C406.154 444.978 410.441 431.89 410.584 415.484L411.298 333.925L424.235 334.038L422.975 478.033L410.038 477.919ZM477.004 298.217C474.191 298.192 471.716 297.139 469.578 295.058C467.44 292.977 466.385 290.342 466.413 287.155C466.44 284.061 467.54 281.587 469.712 279.731C471.979 277.782 474.472 276.819 477.191 276.843C480.097 276.868 482.62 277.828 484.76 279.721C486.993 281.616 488.096 284.157 488.068 287.344C488.042 290.344 486.941 292.913 484.766 295.05C482.591 297.188 480.004 298.243 477.004 298.217ZM469.098 478.436L470.358 334.441L483.295 334.555L482.035 478.549L469.098 478.436ZM621.444 473.44C610.7 479.908 597.922 483.078 583.11 482.949C563.517 482.777 547.779 475.936 535.897 462.426C524.016 448.821 518.17 431.144 518.36 409.395C518.561 386.521 525.474 367.878 539.101 353.465C552.728 338.959 570.135 331.798 591.322 331.983C602.29 332.079 612.911 334.422 623.184 339.012L623.056 353.637C612.799 347.172 601.531 343.886 589.25 343.778C572.376 343.631 558.635 349.604 548.029 361.7C537.424 373.701 532.036 389.358 531.867 408.67C531.704 427.325 536.354 442.366 545.817 453.793C555.373 465.221 568.026 471.004 583.776 471.141C598.213 471.268 610.808 467.534 621.563 459.94L621.444 473.44ZM738.525 480.792L670.244 409.036L669.682 409.031L669.059 480.184L656.122 480.071L657.988 266.892L670.925 267.005L669.723 404.39L670.285 404.395L736.27 336.767L753.004 336.913L684.052 406.063L757.228 480.955L738.525 480.792ZM776.688 474.797L776.825 459.188C781.663 463.45 787.54 466.829 794.456 469.327C801.372 471.825 807.361 473.097 812.423 473.141C835.016 473.338 846.393 464.203 846.555 445.735C846.611 439.36 844.174 433.901 839.245 429.358C834.316 424.815 826.294 420.104 815.18 415.225C801.452 409.105 791.803 402.833 786.234 396.409C780.76 389.892 778.063 382.04 778.143 372.853C778.246 361.135 782.782 351.705 791.751 344.564C800.814 337.425 811.907 333.912 825.032 334.027C837.406 334.135 847.978 336.759 856.745 341.898L856.617 356.523C845.991 349.492 834.959 345.927 823.522 345.827C814.054 345.744 806.392 348.161 800.536 353.079C794.681 357.903 791.719 364.252 791.65 372.127C791.59 378.971 793.37 384.565 796.988 388.909C800.607 393.159 808.627 398.105 821.046 403.745C835.987 410.626 846.244 416.997 851.818 422.858C857.393 428.626 860.138 436.291 860.054 445.853C859.954 457.29 855.559 466.721 846.869 474.145C838.273 481.476 826.429 485.076 811.335 484.944C797.461 484.823 785.912 481.441 776.688 474.797Z" fill="#2F2F2F"/>
</g>
</g>
<defs>
<filter id="filter0_d" x="1001.52" y="118" width="296.212" height="482.738" filterUnits="userSpaceOnUse" color-interpolation-filters="sRGB">
<feFlood flood-opacity="0" result="BackgroundImageFix"/>
<feColorMatrix in="SourceAlpha" type="matrix" values="0 0 0 0 0 0 0 0 0 0 0 0 0 0 0 0 0 0 127 0"/>
<feOffset dy="4"/>
<feGaussianBlur stdDeviation="2"/>
<feColorMatrix type="matrix" values="0 0 0 0 0 0 0 0 0 0 0 0 0 0 0 0 0 0 0.25 0"/>
<feBlend mode="normal" in2="BackgroundImageFix" result="effect1_dropShadow"/>
<feBlend mode="normal" in="SourceGraphic" in2="effect1_dropShadow" result="shape"/>
</filter>
<filter id="filter1_d" x="86.9858" y="266.892" width="777.07" height="245.064" filterUnits="userSpaceOnUse" color-interpolation-filters="sRGB">
<feFlood flood-opacity="0" result="BackgroundImageFix"/>
<feColorMatrix in="SourceAlpha" type="matrix" values="0 0 0 0 0 0 0 0 0 0 0 0 0 0 0 0 0 0 127 0"/>
<feOffset dy="4"/>
<feGaussianBlur stdDeviation="2"/>
<feColorMatrix type="matrix" values="0 0 0 0 0 0 0 0 0 0 0 0 0 0 0 0 0 0 0.25 0"/>
<feBlend mode="normal" in2="BackgroundImageFix" result="effect1_dropShadow"/>
<feBlend mode="normal" in="SourceGraphic" in2="effect1_dropShadow" result="shape"/>
</filter>
<clipPath id="clip0">
<rect width="1408" height="593" fill="white" transform="translate(0.524414)"/>
</clipPath>
</defs>
</svg>
